<svg viewBox="0 0 576 512" xmlns="http://www.w3.org/2000/svg"><path d="m528.5 171.5-146.4-21.29-65.43-132.4C310.9 5.971 299.4-.002 287.1 0c-10.5 0-22 5.899-27.8 17.8l-65.5 132.4-146.33 21.3c-26.27 3.8-36.79 36.1-17.75 54.6l105.9 102.1-25.02 146.4c-3.6 20.7 13 37.4 31.6 37.4 4.932 0 10.01-1.172 14.88-3.75L288 439.6l130.9 68.7c4.865 2.553 9.926 3.713 14.85 3.713 18.61 0 35.21-16.61 31.65-37.41l-25.05-145.5 105.9-102.1C565.3 207.6 554.8 175.3 528.5 171.5zM390.2 320.6l22.4 130.1-117.2-61.48a16.007 16.007 0 0 0-14.87 0L163.4 450.7l22.4-130.1c.9-5.2-1.7-10.5-4.6-14.2l-94.7-92.09 130.9-19.04c5.2-.77 9.7-4.07 12-8.77L288 67.99l58.59 118.5a16 16 0 0 0 12.04 8.744l130.9 19.04-94.7 92.09C391 310.1 389.3 315.4 390.2 320.6z" fill="#ffee00" class="fill-000000"></path></svg>